<svg width="20" height="17" viewBox="0 0 20 17" fill="none" xmlns="http://www.w3.org/2000/svg">
<path fill-rule="evenodd" clip-rule="evenodd" d="M9.99954 16.0001C10.1485 16.0001 10.2913 15.9409 10.3966 15.8356L17.3275 8.90468C17.3842 8.84803 17.4392 8.79037 17.4925 8.73175H19.0215C19.3316 8.73175 19.583 8.48035 19.583 8.17022C19.583 7.86009 19.3316 7.60868 19.0215 7.60868H18.2649C19.2091 5.72867 18.8966 3.3788 17.3275 1.80975C15.3683 -0.149474 12.1918 -0.149474 10.2326 1.80975L9.99954 2.04277L9.76653 1.80975C7.8073 -0.149474 4.63079 -0.149474 2.67157 1.80975C1.10248 3.3788 0.790028 5.72866 1.73421 7.60868H0.97755C0.667423 7.60868 0.416016 7.86009 0.416016 8.17022C0.416016 8.48035 0.667423 8.73175 0.97755 8.73175H2.50655C2.55992 8.79037 2.61493 8.84804 2.67157 8.90468L9.60248 15.8356C9.70779 15.9409 9.85061 16.0001 9.99954 16.0001ZM4.08691 8.73175L9.99954 14.6444L15.9122 8.73175H13.7066C13.7064 8.73175 13.7061 8.73175 13.7059 8.73175H13.7056C13.5005 8.73175 13.321 8.62177 13.223 8.45756L12.3073 7.0116L10.4176 10.3111C10.383 10.3746 10.3359 10.4318 10.2777 10.4788C10.2367 10.5119 10.1916 10.5388 10.1438 10.559C10.0723 10.5894 9.99759 10.6038 9.92383 10.6036C9.82926 10.6036 9.73343 10.5796 9.64549 10.5293C9.62835 10.5195 9.61169 10.5088 9.5956 10.4971C9.51744 10.4408 9.45749 10.3671 9.41803 10.2845L7.05426 5.61916L6.0087 7.91721C6.04714 7.99324 6.0688 8.0792 6.0688 8.17022C6.0688 8.48035 5.81739 8.73175 5.50726 8.73175H4.08691ZM11.793 5.64982L9.95488 8.8592L7.58045 4.17284C7.44029 3.89619 7.1024 3.78556 6.82575 3.92572C6.64424 4.01769 6.53419 4.19477 6.51956 4.38383C6.44234 4.43591 6.37901 4.50746 6.33927 4.59479L4.96801 7.60868H3.04138C1.96144 6.08837 2.10287 3.96668 3.46569 2.60389L3.08528 2.22346L3.4657 2.60388C4.98634 1.08324 7.45176 1.08324 8.9724 2.60388L9.60248 3.23396C9.82177 3.45325 10.1773 3.45325 10.3966 3.23396L11.0267 2.60388C12.5473 1.08324 15.0127 1.08324 16.5334 2.60388L16.9305 2.20682L16.5334 2.60389C17.8962 3.96668 18.0376 6.08837 16.9577 7.60868H14.0148L12.7575 5.62356C12.683 5.50584 12.5719 5.4253 12.4484 5.38733C12.4055 5.37407 12.3617 5.36621 12.318 5.36351C12.2234 5.35755 12.1266 5.37542 12.0371 5.41922C11.968 5.45278 11.9053 5.50072 11.8539 5.5617C11.8306 5.58927 11.8103 5.61881 11.793 5.64982Z" fill="#908A99"/>
<path d="M10.3966 15.8356L10.2552 15.6942H10.2552L10.3966 15.8356ZM17.3275 8.90468L17.1861 8.76325L17.1861 8.76325L17.3275 8.90468ZM17.4925 8.73175V8.53175C17.4362 8.53175 17.3825 8.55548 17.3446 8.59711L17.4925 8.73175ZM18.2649 7.60868L18.0861 7.51892C18.055 7.58092 18.0582 7.65463 18.0947 7.71368C18.1311 7.77273 18.1955 7.80868 18.2649 7.80868V7.60868ZM17.3275 1.80975L17.1861 1.95117L17.1861 1.95117L17.3275 1.80975ZM10.2326 1.80975L10.0911 1.66833V1.66833L10.2326 1.80975ZM9.99954 2.04277L9.85812 2.18419C9.93623 2.26229 10.0629 2.26229 10.141 2.18419L9.99954 2.04277ZM9.76653 1.80975L9.62511 1.95117V1.95117L9.76653 1.80975ZM2.67157 1.80975L2.81299 1.95117L2.81299 1.95117L2.67157 1.80975ZM1.73421 7.60868V7.80868C1.80359 7.80868 1.86801 7.77273 1.90443 7.71368C1.94086 7.65463 1.94407 7.58092 1.91294 7.51892L1.73421 7.60868ZM2.50655 8.73175L2.65444 8.59711C2.61654 8.55548 2.56285 8.53175 2.50655 8.53175V8.73175ZM2.67157 8.90468L2.81299 8.76326L2.81299 8.76326L2.67157 8.90468ZM9.60248 15.8356L9.7439 15.6942H9.7439L9.60248 15.8356ZM9.99954 14.6444L9.85812 14.7858C9.89563 14.8233 9.9465 14.8444 9.99954 14.8444C10.0526 14.8444 10.1035 14.8233 10.141 14.7858L9.99954 14.6444ZM4.08691 8.73175V8.53175C4.00601 8.53175 3.93309 8.58048 3.90213 8.65522C3.87117 8.72995 3.88828 8.81598 3.94548 8.87318L4.08691 8.73175ZM15.9122 8.73175L16.0536 8.87318C16.1108 8.81598 16.1279 8.72995 16.097 8.65522C16.066 8.58048 15.9931 8.53175 15.9122 8.53175V8.73175ZM13.223 8.45756L13.3949 8.35503L13.392 8.35055L13.223 8.45756ZM12.3073 7.0116L12.4762 6.90459C12.4387 6.84535 12.3729 6.81009 12.3028 6.81165C12.2327 6.81321 12.1686 6.85136 12.1337 6.9122L12.3073 7.0116ZM10.4176 10.3111L10.244 10.2117L10.2419 10.2154L10.4176 10.3111ZM10.2777 10.4788L10.1521 10.3231L10.152 10.3232L10.2777 10.4788ZM10.1438 10.559L10.0659 10.3748L10.0656 10.3749L10.1438 10.559ZM9.92383 10.6036L9.92428 10.4036L9.9239 10.4036L9.92383 10.6036ZM9.64549 10.5293L9.74489 10.3557L9.74475 10.3556L9.64549 10.5293ZM9.5956 10.4971L9.71264 10.335L9.71256 10.3349L9.5956 10.4971ZM9.41803 10.2845L9.59855 10.1983L9.59644 10.1941L9.41803 10.2845ZM7.05426 5.61916L7.23267 5.52877C7.19792 5.46019 7.12693 5.4176 7.05007 5.41921C6.9732 5.42082 6.90406 5.46636 6.87222 5.53634L7.05426 5.61916ZM6.0087 7.91721L5.82666 7.83438C5.80153 7.88962 5.80284 7.95329 5.83022 8.00745L6.0087 7.91721ZM11.793 5.64982L11.9665 5.74922L11.9676 5.7473L11.793 5.64982ZM9.95488 8.8592L9.77647 8.94959C9.80971 9.01519 9.87625 9.05726 9.94976 9.05914C10.0233 9.06102 10.0919 9.02241 10.1284 8.9586L9.95488 8.8592ZM7.58045 4.17284L7.75886 4.08245V4.08245L7.58045 4.17284ZM6.82575 3.92572L6.91614 4.10413L6.82575 3.92572ZM6.51956 4.38383L6.6314 4.54963C6.68201 4.5155 6.71426 4.46012 6.71897 4.39926L6.51956 4.38383ZM6.33927 4.59479L6.15723 4.51196V4.51196L6.33927 4.59479ZM4.96801 7.60868V7.80868C5.04642 7.80868 5.11759 7.76287 5.15006 7.69151L4.96801 7.60868ZM3.04138 7.60868L2.87833 7.72451C2.91584 7.77731 2.97661 7.80868 3.04138 7.80868V7.60868ZM3.46569 2.60389L3.60711 2.74531C3.68522 2.66721 3.68522 2.54057 3.60712 2.46247L3.46569 2.60389ZM3.08528 2.22346L3.2267 2.08204C3.14859 2.00393 3.02196 2.00393 2.94386 2.08204C2.86575 2.16014 2.86575 2.28677 2.94385 2.36488L3.08528 2.22346ZM3.4657 2.60388L3.32428 2.7453C3.40238 2.82341 3.52901 2.82341 3.60712 2.7453L3.4657 2.60388ZM8.9724 2.60388L8.83098 2.7453V2.7453L8.9724 2.60388ZM9.60248 3.23396L9.46106 3.37538L9.60248 3.23396ZM10.3966 3.23396L10.2552 3.09254V3.09254L10.3966 3.23396ZM11.0267 2.60388L11.1681 2.7453L11.0267 2.60388ZM16.5334 2.60388L16.392 2.7453C16.4701 2.82341 16.5967 2.82341 16.6748 2.7453L16.5334 2.60388ZM16.9305 2.20682L17.0719 2.34824C17.15 2.27013 17.15 2.1435 17.0719 2.0654C16.9938 1.98729 16.8671 1.98729 16.789 2.0654L16.9305 2.20682ZM16.5334 2.60389L16.392 2.46247C16.3545 2.49997 16.3334 2.55085 16.3334 2.60389C16.3334 2.65693 16.3545 2.7078 16.392 2.74531L16.5334 2.60389ZM16.9577 7.60868V7.80868C17.0225 7.80868 17.0832 7.77731 17.1208 7.72451L16.9577 7.60868ZM14.0148 7.60868L13.8458 7.71569C13.8825 7.77359 13.9463 7.80868 14.0148 7.80868V7.60868ZM12.7575 5.62356L12.9265 5.51655V5.51655L12.7575 5.62356ZM12.4484 5.38733L12.3893 5.57841L12.3896 5.5785L12.4484 5.38733ZM12.318 5.36351L12.3054 5.56312L12.3057 5.56314L12.318 5.36351ZM12.0371 5.41922L12.1245 5.5991L12.1249 5.59888L12.0371 5.41922ZM11.8539 5.5617L12.0067 5.69075L12.0069 5.69057L11.8539 5.5617ZM10.2552 15.6942C10.1874 15.762 10.0954 15.8001 9.99954 15.8001V16.2001C10.2015 16.2001 10.3952 16.1198 10.538 15.977L10.2552 15.6942ZM17.1861 8.76325L10.2552 15.6942L10.538 15.977L17.4689 9.0461L17.1861 8.76325ZM17.3446 8.59711C17.2934 8.65342 17.2405 8.70882 17.1861 8.76325L17.4689 9.0461C17.5278 8.98725 17.585 8.92732 17.6404 8.8664L17.3446 8.59711ZM19.0215 8.53175H17.4925V8.93175H19.0215V8.53175ZM19.383 8.17022C19.383 8.36989 19.2211 8.53175 19.0215 8.53175V8.93175C19.442 8.93175 19.783 8.5908 19.783 8.17022H19.383ZM19.0215 7.80868C19.2211 7.80868 19.383 7.97055 19.383 8.17022H19.783C19.783 7.74964 19.442 7.40868 19.0215 7.40868V7.80868ZM18.2649 7.80868H19.0215V7.40868H18.2649V7.80868ZM17.1861 1.95117C18.6924 3.45746 18.9928 5.71365 18.0861 7.51892L18.4436 7.69844C19.4253 5.74369 19.1008 3.30015 17.4689 1.66833L17.1861 1.95117ZM10.374 1.95117C12.2551 0.0700521 15.305 0.0700524 17.1861 1.95117L17.4689 1.66833C15.4316 -0.369 12.1285 -0.369 10.0911 1.66833L10.374 1.95117ZM10.141 2.18419L10.374 1.95117L10.0911 1.66833L9.85812 1.90135L10.141 2.18419ZM9.62511 1.95117L9.85812 2.18419L10.141 1.90135L9.90795 1.66833L9.62511 1.95117ZM2.81299 1.95117C4.69411 0.0700524 7.74398 0.0700521 9.62511 1.95117L9.90795 1.66833C7.87062 -0.369 4.56748 -0.369 2.53015 1.66833L2.81299 1.95117ZM1.91294 7.51892C1.00629 5.71364 1.30667 3.45746 2.81299 1.95117L2.53015 1.66832C0.898291 3.30015 0.573766 5.74368 1.55548 7.69844L1.91294 7.51892ZM0.97755 7.80868H1.73421V7.40868H0.97755V7.80868ZM0.616016 8.17022C0.616016 7.97055 0.77788 7.80868 0.97755 7.80868V7.40868C0.556966 7.40868 0.216016 7.74964 0.216016 8.17022H0.616016ZM0.97755 8.53175C0.77788 8.53175 0.616016 8.36989 0.616016 8.17022H0.216016C0.216016 8.5908 0.556966 8.93175 0.97755 8.93175V8.53175ZM2.50655 8.53175H0.97755V8.93175H2.50655V8.53175ZM2.81299 8.76326C2.75856 8.70882 2.70571 8.65342 2.65444 8.59711L2.35866 8.8664C2.41413 8.92733 2.4713 8.98725 2.53015 9.0461L2.81299 8.76326ZM9.7439 15.6942L2.81299 8.76326L2.53015 9.0461L9.46106 15.977L9.7439 15.6942ZM9.99954 15.8001C9.90366 15.8001 9.8117 15.762 9.7439 15.6942L9.46106 15.977C9.60387 16.1198 9.79757 16.2001 9.99954 16.2001V15.8001ZM10.141 14.503L4.22833 8.59033L3.94548 8.87318L9.85812 14.7858L10.141 14.503ZM15.7708 8.59033L9.85812 14.503L10.141 14.7858L16.0536 8.87318L15.7708 8.59033ZM13.7066 8.93175H15.9122V8.53175H13.7066V8.93175ZM13.7059 8.93175C13.7059 8.93175 13.7059 8.93175 13.7059 8.93175H13.7059C13.7059 8.93175 13.7059 8.93175 13.7059 8.93175H13.7059C13.7059 8.93175 13.7059 8.93175 13.7059 8.93175H13.7059C13.7059 8.93175 13.7059 8.93175 13.7059 8.93175H13.7059C13.7059 8.93175 13.7059 8.93175 13.7059 8.93175H13.7059C13.7059 8.93175 13.7059 8.93175 13.7059 8.93175H13.7059C13.7059 8.93175 13.7059 8.93175 13.7059 8.93175H13.7059C13.7059 8.93175 13.7059 8.93175 13.7059 8.93175H13.7059C13.7059 8.93175 13.7059 8.93175 13.7059 8.93175H13.7059C13.7059 8.93175 13.7059 8.93175 13.7059 8.93175H13.7059C13.7059 8.93175 13.7059 8.93175 13.7059 8.93175H13.7059C13.7059 8.93175 13.7059 8.93175 13.7059 8.93175H13.7059C13.7059 8.93175 13.7059 8.93175 13.7059 8.93175H13.7059C13.7059 8.93175 13.7059 8.93175 13.7059 8.93175H13.7059C13.7059 8.93175 13.7059 8.93175 13.7059 8.93175H13.7059C13.7059 8.93175 13.7059 8.93175 13.7059 8.93175H13.7059C13.7059 8.93175 13.7059 8.93175 13.7059 8.93175H13.7059C13.7059 8.93175 13.7059 8.93175 13.7059 8.93175H13.7059C13.7059 8.93175 13.7059 8.93175 13.7059 8.93175H13.7059C13.7059 8.93175 13.7059 8.93175 13.7059 8.93175H13.7059C13.7059 8.93175 13.7059 8.93175 13.7059 8.93175H13.7059C13.7059 8.93175 13.7059 8.93175 13.7059 8.93175C13.7059 8.93175 13.7059 8.93175 13.7059 8.93175H13.7059C13.7059 8.93175 13.7059 8.93175 13.7059 8.93175H13.7059C13.7059 8.93175 13.7059 8.93175 13.7059 8.93175H13.7059C13.7059 8.93175 13.7059 8.93175 13.7059 8.93175H13.7059C13.7059 8.93175 13.7059 8.93175 13.7059 8.93175H13.7059C13.7059 8.93175 13.7059 8.93175 13.7059 8.93175H13.7059C13.7059 8.93175 13.7059 8.93175 13.7059 8.93175H13.7059C13.7059 8.93175 13.7059 8.93175 13.7059 8.93175H13.7059C13.7059 8.93175 13.7059 8.93175 13.7059 8.93175H13.706C13.706 8.93175 13.706 8.93175 13.706 8.93175H13.706C13.706 8.93175 13.706 8.93175 13.706 8.93175H13.706C13.706 8.93175 13.706 8.93175 13.706 8.93175H13.706C13.706 8.93175 13.706 8.93175 13.706 8.93175H13.706C13.706 8.93175 13.706 8.93175 13.706 8.93175H13.706C13.706 8.93175 13.706 8.93175 13.706 8.93175H13.706C13.706 8.93175 13.706 8.93175 13.706 8.93175H13.706C13.706 8.93175 13.706 8.93175 13.706 8.93175H13.706C13.706 8.93175 13.706 8.93175 13.706 8.93175H13.706C13.706 8.93175 13.706 8.93175 13.706 8.93175H13.706C13.706 8.93175 13.706 8.93175 13.706 8.93175H13.706C13.706 8.93175 13.706 8.93175 13.706 8.93175H13.706C13.706 8.93175 13.706 8.93175 13.706 8.93175C13.706 8.93175 13.706 8.93175 13.706 8.93175H13.706C13.706 8.93175 13.706 8.93175 13.706 8.93175H13.706C13.706 8.93175 13.706 8.93175 13.706 8.93175H13.706C13.706 8.93175 13.706 8.93175 13.706 8.93175H13.706C13.706 8.93175 13.706 8.93175 13.706 8.93175H13.706C13.706 8.93175 13.706 8.93175 13.706 8.93175H13.706C13.706 8.93175 13.706 8.93175 13.706 8.93175H13.706C13.706 8.93175 13.706 8.93175 13.706 8.93175H13.706C13.706 8.93175 13.706 8.93175 13.706 8.93175H13.706C13.706 8.93175 13.706 8.93175 13.706 8.93175H13.706C13.706 8.93175 13.706 8.93175 13.706 8.93175H13.706C13.706 8.93175 13.706 8.93175 13.706 8.93175H13.706C13.706 8.93175 13.706 8.93175 13.706 8.93175H13.706C13.706 8.93175 13.706 8.93175 13.706 8.93175H13.706C13.706 8.93175 13.706 8.93175 13.706 8.93175H13.706C13.706 8.93175 13.706 8.93175 13.706 8.93175H13.706C13.706 8.93175 13.706 8.93175 13.706 8.93175H13.706C13.706 8.93175 13.706 8.93175 13.706 8.93175H13.706C13.706 8.93175 13.706 8.93175 13.706 8.93175H13.706C13.706 8.93175 13.706 8.93175 13.706 8.93175H13.706C13.706 8.93175 13.706 8.93175 13.706 8.93175H13.706C13.706 8.93175 13.706 8.93175 13.706 8.93175C13.706 8.93175 13.706 8.93175 13.7061 8.93175H13.7061C13.7061 8.93175 13.7061 8.93175 13.7061 8.93175H13.7061C13.7061 8.93175 13.7061 8.93175 13.7061 8.93175H13.7061C13.7061 8.93175 13.7061 8.93175 13.7061 8.93175H13.7061C13.7061 8.93175 13.7061 8.93175 13.7061 8.93175H13.7061C13.7061 8.93175 13.7061 8.93175 13.7061 8.93175H13.7061C13.7061 8.93175 13.7061 8.93175 13.7061 8.93175H13.7061C13.7061 8.93175 13.7061 8.93175 13.7061 8.93175H13.7061C13.7061 8.93175 13.7061 8.93175 13.7061 8.93175H13.7061C13.7061 8.93175 13.7061 8.93175 13.7061 8.93175H13.7061C13.7061 8.93175 13.7061 8.93175 13.7061 8.93175H13.7061C13.7061 8.93175 13.7061 8.93175 13.7061 8.93175H13.7061C13.7061 8.93175 13.7061 8.93175 13.7061 8.93175H13.7061C13.7061 8.93175 13.7061 8.93175 13.7061 8.93175H13.7061C13.7061 8.93175 13.7061 8.93175 13.7061 8.93175H13.7061C13.7061 8.93175 13.7061 8.93175 13.7061 8.93175H13.7061C13.7061 8.93175 13.7061 8.93175 13.7061 8.93175H13.7061C13.7061 8.93175 13.7061 8.93175 13.7061 8.93175H13.7061C13.7061 8.93175 13.7061 8.93175 13.7061 8.93175H13.7061C13.7061 8.93175 13.7061 8.93175 13.7061 8.93175H13.7061C13.7061 8.93175 13.7061 8.93175 13.7061 8.93175C13.7061 8.93175 13.7061 8.93175 13.7061 8.93175H13.7061C13.7061 8.93175 13.7061 8.93175 13.7061 8.93175H13.7061C13.7061 8.93175 13.7061 8.93175 13.7061 8.93175H13.7061C13.7061 8.93175 13.7061 8.93175 13.7061 8.93175H13.7061C13.7061 8.93175 13.7061 8.93175 13.7061 8.93175H13.7061C13.7061 8.93175 13.7061 8.93175 13.7061 8.93175H13.7061C13.7061 8.93175 13.7061 8.93175 13.7061 8.93175H13.7061C13.7061 8.93175 13.7061 8.93175 13.7061 8.93175H13.7061C13.7061 8.93175 13.7061 8.93175 13.7061 8.93175H13.7061C13.7061 8.93175 13.7061 8.93175 13.7061 8.93175H13.7061C13.7061 8.93175 13.7061 8.93175 13.7061 8.93175H13.7061C13.7061 8.93175 13.7061 8.93175 13.7061 8.93175H13.7061C13.7061 8.93175 13.7061 8.93175 13.7061 8.93175H13.7061C13.7061 8.93175 13.7061 8.93175 13.7061 8.93175H13.7061C13.7061 8.93175 13.7061 8.93175 13.7062 8.93175H13.7062C13.7062 8.93175 13.7062 8.93175 13.7062 8.93175H13.7062C13.7062 8.93175 13.7062 8.93175 13.7062 8.93175H13.7062C13.7062 8.93175 13.7062 8.93175 13.7062 8.93175H13.7062C13.7062 8.93175 13.7062 8.93175 13.7062 8.93175H13.7062C13.7062 8.93175 13.7062 8.93175 13.7062 8.93175H13.7062C13.7062 8.93175 13.7062 8.93175 13.7062 8.93175H13.7062C13.7062 8.93175 13.7062 8.93175 13.7062 8.93175C13.7062 8.93175 13.7062 8.93175 13.7062 8.93175H13.7062C13.7062 8.93175 13.7062 8.93175 13.7062 8.93175H13.7062C13.7062 8.93175 13.7062 8.93175 13.7062 8.93175H13.7062C13.7062 8.93175 13.7062 8.93175 13.7062 8.93175H13.7062C13.7062 8.93175 13.7062 8.93175 13.7062 8.93175H13.7062C13.7062 8.93175 13.7062 8.93175 13.7062 8.93175H13.7062C13.7062 8.93175 13.7062 8.93175 13.7062 8.93175H13.7062C13.7062 8.93175 13.7062 8.93175 13.7062 8.93175H13.7062C13.7062 8.93175 13.7062 8.93175 13.7062 8.93175H13.7062C13.7062 8.93175 13.7062 8.93175 13.7062 8.93175H13.7062C13.7062 8.93175 13.7062 8.93175 13.7062 8.93175H13.7062C13.7062 8.93175 13.7062 8.93175 13.7062 8.93175H13.7062C13.7062 8.93175 13.7062 8.93175 13.7062 8.93175H13.7062C13.7062 8.93175 13.7062 8.93175 13.7062 8.93175H13.7062C13.7062 8.93175 13.7062 8.93175 13.7062 8.93175H13.7062C13.7062 8.93175 13.7062 8.93175 13.7062 8.93175H13.7062C13.7062 8.93175 13.7062 8.93175 13.7062 8.93175H13.7062C13.7062 8.93175 13.7062 8.93175 13.7062 8.93175H13.7062C13.7062 8.93175 13.7062 8.93175 13.7062 8.93175H13.7062C13.7062 8.93175 13.7062 8.93175 13.7062 8.93175H13.7062C13.7062 8.93175 13.7062 8.93175 13.7062 8.93175H13.7062C13.7062 8.93175 13.7062 8.93175 13.7062 8.93175C13.7062 8.93175 13.7062 8.93175 13.7062 8.93175H13.7062C13.7062 8.93175 13.7062 8.93175 13.7062 8.93175H13.7062C13.7062 8.93175 13.7062 8.93175 13.7062 8.93175H13.7062C13.7062 8.93175 13.7062 8.93175 13.7062 8.93175H13.7062C13.7062 8.93175 13.7062 8.93175 13.7062 8.93175H13.7062C13.7062 8.93175 13.7062 8.93175 13.7062 8.93175H13.7062C13.7063 8.93175 13.7063 8.93175 13.7063 8.93175H13.7063C13.7063 8.93175 13.7063 8.93175 13.7063 8.93175H13.7063C13.7063 8.93175 13.7063 8.93175 13.7063 8.93175H13.7063C13.7063 8.93175 13.7063 8.93175 13.7063 8.93175H13.7063C13.7063 8.93175 13.7063 8.93175 13.7063 8.93175H13.7063C13.7063 8.93175 13.7063 8.93175 13.7063 8.93175H13.7063C13.7063 8.93175 13.7063 8.93175 13.7063 8.93175H13.7063C13.7063 8.93175 13.7063 8.93175 13.7063 8.93175H13.7063C13.7063 8.93175 13.7063 8.93175 13.7063 8.93175H13.7063C13.7063 8.93175 13.7063 8.93175 13.7063 8.93175H13.7063C13.7063 8.93175 13.7063 8.93175 13.7063 8.93175H13.7063C13.7063 8.93175 13.7063 8.93175 13.7063 8.93175H13.7063C13.7063 8.93175 13.7063 8.93175 13.7063 8.93175H13.7063C13.7063 8.93175 13.7063 8.93175 13.7063 8.93175H13.7063C13.7063 8.93175 13.7063 8.93175 13.7063 8.93175H13.7063C13.7063 8.93175 13.7063 8.93175 13.7063 8.93175C13.7063 8.93175 13.7063 8.93175 13.7063 8.93175H13.7063C13.7063 8.93175 13.7063 8.93175 13.7063 8.93175H13.7063C13.7063 8.93175 13.7063 8.93175 13.7063 8.93175H13.7063C13.7063 8.93175 13.7063 8.93175 13.7063 8.93175H13.7063C13.7063 8.93175 13.7063 8.93175 13.7063 8.93175H13.7063C13.7063 8.93175 13.7063 8.93175 13.7063 8.93175H13.7063C13.7063 8.93175 13.7063 8.93175 13.7063 8.93175H13.7063C13.7063 8.93175 13.7063 8.93175 13.7063 8.93175H13.7063C13.7063 8.93175 13.7063 8.93175 13.7063 8.93175H13.7063C13.7063 8.93175 13.7063 8.93175 13.7063 8.93175H13.7063C13.7063 8.93175 13.7063 8.93175 13.7063 8.93175H13.7063C13.7063 8.93175 13.7063 8.93175 13.7063 8.93175H13.7063C13.7063 8.93175 13.7063 8.93175 13.7063 8.93175H13.7063C13.7063 8.93175 13.7063 8.93175 13.7063 8.93175H13.7063C13.7063 8.93175 13.7063 8.93175 13.7063 8.93175H13.7063C13.7063 8.93175 13.7063 8.93175 13.7063 8.93175H13.7063C13.7063 8.93175 13.7063 8.93175 13.7063 8.93175H13.7063C13.7063 8.93175 13.7063 8.93175 13.7063 8.93175H13.7063C13.7063 8.93175 13.7063 8.93175 13.7063 8.93175H13.7063C13.7063 8.93175 13.7063 8.93175 13.7064 8.93175H13.7064C13.7064 8.93175 13.7064 8.93175 13.7064 8.93175H13.7064C13.7064 8.93175 13.7064 8.93175 13.7064 8.93175C13.7064 8.93175 13.7064 8.93175 13.7064 8.93175H13.7064C13.7064 8.93175 13.7064 8.93175 13.7064 8.93175H13.7064C13.7064 8.93175 13.7064 8.93175 13.7064 8.93175H13.7064C13.7064 8.93175 13.7064 8.93175 13.7064 8.93175H13.7064C13.7064 8.93175 13.7064 8.93175 13.7064 8.93175H13.7064C13.7064 8.93175 13.7064 8.93175 13.7064 8.93175H13.7064C13.7064 8.93175 13.7064 8.93175 13.7064 8.93175H13.7064C13.7064 8.93175 13.7064 8.93175 13.7064 8.93175H13.7064C13.7064 8.93175 13.7064 8.93175 13.7064 8.93175H13.7064C13.7064 8.93175 13.7064 8.93175 13.7064 8.93175H13.7064C13.7064 8.93175 13.7064 8.93175 13.7064 8.93175H13.7064C13.7064 8.93175 13.7064 8.93175 13.7064 8.93175H13.7064C13.7064 8.93175 13.7064 8.93175 13.7064 8.93175H13.7064C13.7064 8.93175 13.7064 8.93175 13.7064 8.93175H13.7064C13.7064 8.93175 13.7064 8.93175 13.7064 8.93175H13.7064C13.7064 8.93175 13.7064 8.93175 13.7064 8.93175H13.7064C13.7064 8.93175 13.7064 8.93175 13.7064 8.93175H13.7064C13.7064 8.93175 13.7064 8.93175 13.7064 8.93175H13.7064C13.7064 8.93175 13.7064 8.93175 13.7064 8.93175H13.7064C13.7064 8.93175 13.7064 8.93175 13.7064 8.93175H13.7064C13.7064 8.93175 13.7064 8.93175 13.7064 8.93175C13.7064 8.93175 13.7064 8.93175 13.7064 8.93175H13.7064C13.7064 8.93175 13.7064 8.93175 13.7064 8.93175H13.7064C13.7064 8.93175 13.7064 8.93175 13.7064 8.93175H13.7064C13.7064 8.93175 13.7064 8.93175 13.7064 8.93175H13.7064C13.7064 8.93175 13.7064 8.93175 13.7064 8.93175H13.7064C13.7064 8.93175 13.7064 8.93175 13.7064 8.93175H13.7064C13.7064 8.93175 13.7064 8.93175 13.7064 8.93175H13.7064C13.7064 8.93175 13.7064 8.93175 13.7064 8.93175H13.7064C13.7064 8.93175 13.7064 8.93175 13.7064 8.93175H13.7064C13.7064 8.93175 13.7064 8.93175 13.7064 8.93175H13.7064C13.7064 8.93175 13.7064 8.93175 13.7064 8.93175H13.7064C13.7064 8.93175 13.7064 8.93175 13.7064 8.93175H13.7064C13.7065 8.93175 13.7065 8.93175 13.7065 8.93175H13.7065C13.7065 8.93175 13.7065 8.93175 13.7065 8.93175H13.7065C13.7065 8.93175 13.7065 8.93175 13.7065 8.93175H13.7065C13.7065 8.93175 13.7065 8.93175 13.7065 8.93175H13.7065C13.7065 8.93175 13.7065 8.93175 13.7065 8.93175H13.7065C13.7065 8.93175 13.7065 8.93175 13.7065 8.93175H13.7065C13.7065 8.93175 13.7065 8.93175 13.7065 8.93175H13.7065C13.7065 8.93175 13.7065 8.93175 13.7065 8.93175H13.7065C13.7065 8.93175 13.7065 8.93175 13.7065 8.93175H13.7065C13.7065 8.93175 13.7065 8.93175 13.7065 8.93175C13.7065 8.93175 13.7065 8.93175 13.7065 8.93175H13.7065C13.7065 8.93175 13.7065 8.93175 13.7065 8.93175H13.7065C13.7065 8.93175 13.7065 8.93175 13.7065 8.93175H13.7065C13.7065 8.93175 13.7065 8.93175 13.7065 8.93175H13.7065C13.7065 8.93175 13.7065 8.93175 13.7065 8.93175H13.7065C13.7065 8.93175 13.7065 8.93175 13.7065 8.93175H13.7065C13.7065 8.93175 13.7065 8.93175 13.7065 8.93175H13.7065C13.7065 8.93175 13.7065 8.93175 13.7065 8.93175H13.7065C13.7065 8.93175 13.7065 8.93175 13.7065 8.93175H13.7065C13.7065 8.93175 13.7065 8.93175 13.7065 8.93175H13.7065C13.7065 8.93175 13.7065 8.93175 13.7065 8.93175H13.7065C13.7065 8.93175 13.7065 8.93175 13.7065 8.93175H13.7065C13.7065 8.93175 13.7065 8.93175 13.7065 8.93175H13.7065C13.7065 8.93175 13.7065 8.93175 13.7065 8.93175H13.7065C13.7065 8.93175 13.7065 8.93175 13.7065 8.93175H13.7065C13.7065 8.93175 13.7065 8.93175 13.7065 8.93175H13.7065C13.7065 8.93175 13.7065 8.93175 13.7065 8.93175H13.7065C13.7065 8.93175 13.7065 8.93175 13.7065 8.93175H13.7065C13.7065 8.93175 13.7065 8.93175 13.7065 8.93175H13.7065C13.7065 8.93175 13.7065 8.93175 13.7065 8.93175H13.7065C13.7065 8.93175 13.7065 8.93175 13.7065 8.93175H13.7065C13.7065 8.93175 13.7065 8.93175 13.7065 8.93175C13.7065 8.93175 13.7065 8.93175 13.7065 8.93175H13.7065C13.7065 8.93175 13.7065 8.93175 13.7065 8.93175H13.7065C13.7065 8.93175 13.7065 8.93175 13.7065 8.93175H13.7065C13.7065 8.93175 13.7065 8.93175 13.7065 8.93175H13.7066C13.7066 8.93175 13.7066 8.93175 13.7066 8.93175H13.7066C13.7066 8.93175 13.7066 8.93175 13.7066 8.93175H13.7066C13.7066 8.93175 13.7066 8.93175 13.7066 8.93175H13.7066C13.7066 8.93175 13.7066 8.93175 13.7066 8.93175H13.7066C13.7066 8.93175 13.7066 8.93175 13.7066 8.93175H13.7066C13.7066 8.93175 13.7066 8.93175 13.7066 8.93175H13.7066C13.7066 8.93175 13.7066 8.93175 13.7066 8.93175H13.7066C13.7066 8.93175 13.7066 8.93175 13.7066 8.93175H13.7066C13.7066 8.93175 13.7066 8.93175 13.7066 8.93175H13.7066C13.7066 8.93175 13.7066 8.93175 13.7066 8.93175H13.7066C13.7066 8.93175 13.7066 8.93175 13.7066 8.93175H13.7066C13.7066 8.93175 13.7066 8.93175 13.7066 8.93175H13.7066C13.7066 8.93175 13.7066 8.93175 13.7066 8.93175H13.7066C13.7066 8.93175 13.7066 8.93175 13.7066 8.93175H13.7066C13.7066 8.93175 13.7066 8.93175 13.7066 8.93175H13.7066C13.7066 8.93175 13.7066 8.93175 13.7066 8.93175H13.7066C13.7066 8.93175 13.7066 8.93175 13.7066 8.93175H13.7066C13.7066 8.93175 13.7066 8.93175 13.7066 8.93175V8.53175C13.7066 8.53175 13.7066 8.53175 13.7066 8.53175H13.7066C13.7066 8.53175 13.7066 8.53175 13.7066 8.53175H13.7066C13.7066 8.53175 13.7066 8.53175 13.7066 8.53175H13.7066C13.7066 8.53175 13.7066 8.53175 13.7066 8.53175H13.7066C13.7066 8.53175 13.7066 8.53175 13.7066 8.53175H13.7066C13.7066 8.53175 13.7066 8.53175 13.7066 8.53175H13.7066C13.7066 8.53175 13.7066 8.53175 13.7066 8.53175H13.7066C13.7066 8.53175 13.7066 8.53175 13.7066 8.53175H13.7066C13.7066 8.53175 13.7066 8.53175 13.7066 8.53175H13.7066C13.7066 8.53175 13.7066 8.53175 13.7066 8.53175H13.7066C13.7066 8.53175 13.7066 8.53175 13.7066 8.53175H13.7066C13.7066 8.53175 13.7066 8.53175 13.7066 8.53175H13.7066C13.7066 8.53175 13.7066 8.53175 13.7066 8.53175H13.7066C13.7066 8.53175 13.7066 8.53175 13.7066 8.53175H13.7066C13.7066 8.53175 13.7066 8.53175 13.7066 8.53175H13.7066C13.7066 8.53175 13.7066 8.53175 13.7066 8.53175H13.7066C13.7066 8.53175 13.7066 8.53175 13.7066 8.53175H13.7066C13.7066 8.53175 13.7066 8.53175 13.7066 8.53175H13.7065C13.7065 8.53175 13.7065 8.53175 13.7065 8.53175H13.7065C13.7065 8.53175 13.7065 8.53175 13.7065 8.53175H13.7065C13.7065 8.53175 13.7065 8.53175 13.7065 8.53175H13.7065C13.7065 8.53175 13.7065 8.53175 13.7065 8.53175C13.7065 8.53175 13.7065 8.53175 13.7065 8.53175H13.7065C13.7065 8.53175 13.7065 8.53175 13.7065 8.53175H13.7065C13.7065 8.53175 13.7065 8.53175 13.7065 8.53175H13.7065C13.7065 8.53175 13.7065 8.53175 13.7065 8.53175H13.7065C13.7065 8.53175 13.7065 8.53175 13.7065 8.53175H13.7065C13.7065 8.53175 13.7065 8.53175 13.7065 8.53175H13.7065C13.7065 8.53175 13.7065 8.53175 13.7065 8.53175H13.7065C13.7065 8.53175 13.7065 8.53175 13.7065 8.53175H13.7065C13.7065 8.53175 13.7065 8.53175 13.7065 8.53175H13.7065C13.7065 8.53175 13.7065 8.53175 13.7065 8.53175H13.7065C13.7065 8.53175 13.7065 8.53175 13.7065 8.53175H13.7065C13.7065 8.53175 13.7065 8.53175 13.7065 8.53175H13.7065C13.7065 8.53175 13.7065 8.53175 13.7065 8.53175H13.7065C13.7065 8.53175 13.7065 8.53175 13.7065 8.53175H13.7065C13.7065 8.53175 13.7065 8.53175 13.7065 8.53175H13.7065C13.7065 8.53175 13.7065 8.53175 13.7065 8.53175H13.7065C13.7065 8.53175 13.7065 8.53175 13.7065 8.53175H13.7065C13.7065 8.53175 13.7065 8.53175 13.7065 8.53175H13.7065C13.7065 8.53175 13.7065 8.53175 13.7065 8.53175H13.7065C13.7065 8.53175 13.7065 8.53175 13.7065 8.53175H13.7065C13.7065 8.53175 13.7065 8.53175 13.7065 8.53175H13.7065C13.7065 8.53175 13.7065 8.53175 13.7065 8.53175C13.7065 8.53175 13.7065 8.53175 13.7065 8.53175H13.7065C13.7065 8.53175 13.7065 8.53175 13.7065 8.53175H13.7065C13.7065 8.53175 13.7065 8.53175 13.7065 8.53175H13.7065C13.7065 8.53175 13.7065 8.53175 13.7065 8.53175H13.7065C13.7065 8.53175 13.7065 8.53175 13.7065 8.53175H13.7065C13.7065 8.53175 13.7065 8.53175 13.7065 8.53175H13.7065C13.7065 8.53175 13.7065 8.53175 13.7065 8.53175H13.7065C13.7065 8.53175 13.7065 8.53175 13.7065 8.53175H13.7065C13.7065 8.53175 13.7065 8.53175 13.7065 8.53175H13.7065C13.7065 8.53175 13.7065 8.53175 13.7064 8.53175H13.7064C13.7064 8.53175 13.7064 8.53175 13.7064 8.53175H13.7064C13.7064 8.53175 13.7064 8.53175 13.7064 8.53175H13.7064C13.7064 8.53175 13.7064 8.53175 13.7064 8.53175H13.7064C13.7064 8.53175 13.7064 8.53175 13.7064 8.53175H13.7064C13.7064 8.53175 13.7064 8.53175 13.7064 8.53175H13.7064C13.7064 8.53175 13.7064 8.53175 13.7064 8.53175H13.7064C13.7064 8.53175 13.7064 8.53175 13.7064 8.53175H13.7064C13.7064 8.53175 13.7064 8.53175 13.7064 8.53175H13.7064C13.7064 8.53175 13.7064 8.53175 13.7064 8.53175H13.7064C13.7064 8.53175 13.7064 8.53175 13.7064 8.53175H13.7064C13.7064 8.53175 13.7064 8.53175 13.7064 8.53175H13.7064C13.7064 8.53175 13.7064 8.53175 13.7064 8.53175C13.7064 8.53175 13.7064 8.53175 13.7064 8.53175H13.7064C13.7064 8.53175 13.7064 8.53175 13.7064 8.53175H13.7064C13.7064 8.53175 13.7064 8.53175 13.7064 8.53175H13.7064C13.7064 8.53175 13.7064 8.53175 13.7064 8.53175H13.7064C13.7064 8.53175 13.7064 8.53175 13.7064 8.53175H13.7064C13.7064 8.53175 13.7064 8.53175 13.7064 8.53175H13.7064C13.7064 8.53175 13.7064 8.53175 13.7064 8.53175H13.7064C13.7064 8.53175 13.7064 8.53175 13.7064 8.53175H13.7064C13.7064 8.53175 13.7064 8.53175 13.7064 8.53175H13.7064C13.7064 8.53175 13.7064 8.53175 13.7064 8.53175H13.7064C13.7064 8.53175 13.7064 8.53175 13.7064 8.53175H13.7064C13.7064 8.53175 13.7064 8.53175 13.7064 8.53175H13.7064C13.7064 8.53175 13.7064 8.53175 13.7064 8.53175H13.7064C13.7064 8.53175 13.7064 8.53175 13.7064 8.53175H13.7064C13.7064 8.53175 13.7064 8.53175 13.7064 8.53175H13.7064C13.7064 8.53175 13.7064 8.53175 13.7064 8.53175H13.7064C13.7064 8.53175 13.7064 8.53175 13.7064 8.53175H13.7064C13.7064 8.53175 13.7064 8.53175 13.7064 8.53175H13.7064C13.7064 8.53175 13.7064 8.53175 13.7064 8.53175H13.7064C13.7064 8.53175 13.7064 8.53175 13.7064 8.53175H13.7064C13.7064 8.53175 13.7064 8.53175 13.7064 8.53175C13.7064 8.53175 13.7064 8.53175 13.7064 8.53175H13.7064C13.7064 8.53175 13.7064 8.53175 13.7064 8.53175H13.7064C13.7063 8.53175 13.7063 8.53175 13.7063 8.53175H13.7063C13.7063 8.53175 13.7063 8.53175 13.7063 8.53175H13.7063C13.7063 8.53175 13.7063 8.53175 13.7063 8.53175H13.7063C13.7063 8.53175 13.7063 8.53175 13.7063 8.53175H13.7063C13.7063 8.53175 13.7063 8.53175 13.7063 8.53175H13.7063C13.7063 8.53175 13.7063 8.53175 13.7063 8.53175H13.7063C13.7063 8.53175 13.7063 8.53175 13.7063 8.53175H13.7063C13.7063 8.53175 13.7063 8.53175 13.7063 8.53175H13.7063C13.7063 8.53175 13.7063 8.53175 13.7063 8.53175H13.7063C13.7063 8.53175 13.7063 8.53175 13.7063 8.53175H13.7063C13.7063 8.53175 13.7063 8.53175 13.7063 8.53175H13.7063C13.7063 8.53175 13.7063 8.53175 13.7063 8.53175H13.7063C13.7063 8.53175 13.7063 8.53175 13.7063 8.53175H13.7063C13.7063 8.53175 13.7063 8.53175 13.7063 8.53175H13.7063C13.7063 8.53175 13.7063 8.53175 13.7063 8.53175H13.7063C13.7063 8.53175 13.7063 8.53175 13.7063 8.53175H13.7063C13.7063 8.53175 13.7063 8.53175 13.7063 8.53175H13.7063C13.7063 8.53175 13.7063 8.53175 13.7063 8.53175H13.7063C13.7063 8.53175 13.7063 8.53175 13.7063 8.53175H13.7063C13.7063 8.53175 13.7063 8.53175 13.7063 8.53175C13.7063 8.53175 13.7063 8.53175 13.7063 8.53175H13.7063C13.7063 8.53175 13.7063 8.53175 13.7063 8.53175H13.7063C13.7063 8.53175 13.7063 8.53175 13.7063 8.53175H13.7063C13.7063 8.53175 13.7063 8.53175 13.7063 8.53175H13.7063C13.7063 8.53175 13.7063 8.53175 13.7063 8.53175H13.7063C13.7063 8.53175 13.7063 8.53175 13.7063 8.53175H13.7063C13.7063 8.53175 13.7063 8.53175 13.7063 8.53175H13.7063C13.7063 8.53175 13.7063 8.53175 13.7063 8.53175H13.7063C13.7063 8.53175 13.7063 8.53175 13.7063 8.53175H13.7063C13.7063 8.53175 13.7063 8.53175 13.7063 8.53175H13.7063C13.7063 8.53175 13.7063 8.53175 13.7063 8.53175H13.7063C13.7063 8.53175 13.7063 8.53175 13.7063 8.53175H13.7063C13.7063 8.53175 13.7063 8.53175 13.7063 8.53175H13.7063C13.7063 8.53175 13.7063 8.53175 13.7063 8.53175H13.7063C13.7063 8.53175 13.7063 8.53175 13.7063 8.53175H13.7063C13.7063 8.53175 13.7063 8.53175 13.7062 8.53175H13.7062C13.7062 8.53175 13.7062 8.53175 13.7062 8.53175H13.7062C13.7062 8.53175 13.7062 8.53175 13.7062 8.53175H13.7062C13.7062 8.53175 13.7062 8.53175 13.7062 8.53175H13.7062C13.7062 8.53175 13.7062 8.53175 13.7062 8.53175H13.7062C13.7062 8.53175 13.7062 8.53175 13.7062 8.53175H13.7062C13.7062 8.53175 13.7062 8.53175 13.7062 8.53175C13.7062 8.53175 13.7062 8.53175 13.7062 8.53175H13.7062C13.7062 8.53175 13.7062 8.53175 13.7062 8.53175H13.7062C13.7062 8.53175 13.7062 8.53175 13.7062 8.53175H13.7062C13.7062 8.53175 13.7062 8.53175 13.7062 8.53175H13.7062C13.7062 8.53175 13.7062 8.53175 13.7062 8.53175H13.7062C13.7062 8.53175 13.7062 8.53175 13.7062 8.53175H13.7062C13.7062 8.53175 13.7062 8.53175 13.7062 8.53175H13.7062C13.7062 8.53175 13.7062 8.53175 13.7062 8.53175H13.7062C13.7062 8.53175 13.7062 8.53175 13.7062 8.53175H13.7062C13.7062 8.53175 13.7062 8.53175 13.7062 8.53175H13.7062C13.7062 8.53175 13.7062 8.53175 13.7062 8.53175H13.7062C13.7062 8.53175 13.7062 8.53175 13.7062 8.53175H13.7062C13.7062 8.53175 13.7062 8.53175 13.7062 8.53175H13.7062C13.7062 8.53175 13.7062 8.53175 13.7062 8.53175H13.7062C13.7062 8.53175 13.7062 8.53175 13.7062 8.53175H13.7062C13.7062 8.53175 13.7062 8.53175 13.7062 8.53175H13.7062C13.7062 8.53175 13.7062 8.53175 13.7062 8.53175H13.7062C13.7062 8.53175 13.7062 8.53175 13.7062 8.53175H13.7062C13.7062 8.53175 13.7062 8.53175 13.7062 8.53175H13.7062C13.7062 8.53175 13.7062 8.53175 13.7062 8.53175H13.7062C13.7062 8.53175 13.7062 8.53175 13.7062 8.53175H13.7062C13.7062 8.53175 13.7062 8.53175 13.7062 8.53175C13.7062 8.53175 13.7062 8.53175 13.7062 8.53175H13.7062C13.7062 8.53175 13.7062 8.53175 13.7062 8.53175H13.7062C13.7062 8.53175 13.7062 8.53175 13.7062 8.53175H13.7062C13.7062 8.53175 13.7062 8.53175 13.7062 8.53175H13.7062C13.7062 8.53175 13.7062 8.53175 13.7062 8.53175H13.7062C13.7062 8.53175 13.7062 8.53175 13.7062 8.53175H13.7062C13.7062 8.53175 13.7062 8.53175 13.7062 8.53175H13.7062C13.7061 8.53175 13.7061 8.53175 13.7061 8.53175H13.7061C13.7061 8.53175 13.7061 8.53175 13.7061 8.53175H13.7061C13.7061 8.53175 13.7061 8.53175 13.7061 8.53175H13.7061C13.7061 8.53175 13.7061 8.53175 13.7061 8.53175H13.7061C13.7061 8.53175 13.7061 8.53175 13.7061 8.53175H13.7061C13.7061 8.53175 13.7061 8.53175 13.7061 8.53175H13.7061C13.7061 8.53175 13.7061 8.53175 13.7061 8.53175H13.7061C13.7061 8.53175 13.7061 8.53175 13.7061 8.53175H13.7061C13.7061 8.53175 13.7061 8.53175 13.7061 8.53175H13.7061C13.7061 8.53175 13.7061 8.53175 13.7061 8.53175H13.7061C13.7061 8.53175 13.7061 8.53175 13.7061 8.53175H13.7061C13.7061 8.53175 13.7061 8.53175 13.7061 8.53175H13.7061C13.7061 8.53175 13.7061 8.53175 13.7061 8.53175H13.7061C13.7061 8.53175 13.7061 8.53175 13.7061 8.53175H13.7061C13.7061 8.53175 13.7061 8.53175 13.7061 8.53175C13.7061 8.53175 13.7061 8.53175 13.7061 8.53175H13.7061C13.7061 8.53175 13.7061 8.53175 13.7061 8.53175H13.7061C13.7061 8.53175 13.7061 8.53175 13.7061 8.53175H13.7061C13.7061 8.53175 13.7061 8.53175 13.7061 8.53175H13.7061C13.7061 8.53175 13.7061 8.53175 13.7061 8.53175H13.7061C13.7061 8.53175 13.7061 8.53175 13.7061 8.53175H13.7061C13.7061 8.53175 13.7061 8.53175 13.7061 8.53175H13.7061C13.7061 8.53175 13.7061 8.53175 13.7061 8.53175H13.7061C13.7061 8.53175 13.7061 8.53175 13.7061 8.53175H13.7061C13.7061 8.53175 13.7061 8.53175 13.7061 8.53175H13.7061C13.7061 8.53175 13.7061 8.53175 13.7061 8.53175H13.7061C13.7061 8.53175 13.7061 8.53175 13.7061 8.53175H13.7061C13.7061 8.53175 13.7061 8.53175 13.7061 8.53175H13.7061C13.7061 8.53175 13.7061 8.53175 13.7061 8.53175H13.7061C13.7061 8.53175 13.7061 8.53175 13.7061 8.53175H13.7061C13.7061 8.53175 13.7061 8.53175 13.7061 8.53175H13.7061C13.7061 8.53175 13.7061 8.53175 13.7061 8.53175H13.7061C13.7061 8.53175 13.7061 8.53175 13.7061 8.53175H13.7061C13.7061 8.53175 13.7061 8.53175 13.7061 8.53175H13.7061C13.7061 8.53175 13.7061 8.53175 13.7061 8.53175H13.7061C13.706 8.53175 13.706 8.53175 13.706 8.53175C13.706 8.53175 13.706 8.53175 13.706 8.53175H13.706C13.706 8.53175 13.706 8.53175 13.706 8.53175H13.706C13.706 8.53175 13.706 8.53175 13.706 8.53175H13.706C13.706 8.53175 13.706 8.53175 13.706 8.53175H13.706C13.706 8.53175 13.706 8.53175 13.706 8.53175H13.706C13.706 8.53175 13.706 8.53175 13.706 8.53175H13.706C13.706 8.53175 13.706 8.53175 13.706 8.53175H13.706C13.706 8.53175 13.706 8.53175 13.706 8.53175H13.706C13.706 8.53175 13.706 8.53175 13.706 8.53175H13.706C13.706 8.53175 13.706 8.53175 13.706 8.53175H13.706C13.706 8.53175 13.706 8.53175 13.706 8.53175H13.706C13.706 8.53175 13.706 8.53175 13.706 8.53175H13.706C13.706 8.53175 13.706 8.53175 13.706 8.53175H13.706C13.706 8.53175 13.706 8.53175 13.706 8.53175H13.706C13.706 8.53175 13.706 8.53175 13.706 8.53175H13.706C13.706 8.53175 13.706 8.53175 13.706 8.53175H13.706C13.706 8.53175 13.706 8.53175 13.706 8.53175H13.706C13.706 8.53175 13.706 8.53175 13.706 8.53175H13.706C13.706 8.53175 13.706 8.53175 13.706 8.53175H13.706C13.706 8.53175 13.706 8.53175 13.706 8.53175H13.706C13.706 8.53175 13.706 8.53175 13.706 8.53175H13.706C13.706 8.53175 13.706 8.53175 13.706 8.53175C13.706 8.53175 13.706 8.53175 13.706 8.53175H13.706C13.706 8.53175 13.706 8.53175 13.706 8.53175H13.706C13.706 8.53175 13.706 8.53175 13.706 8.53175H13.706C13.706 8.53175 13.706 8.53175 13.706 8.53175H13.706C13.706 8.53175 13.706 8.53175 13.706 8.53175H13.706C13.706 8.53175 13.706 8.53175 13.706 8.53175H13.706C13.706 8.53175 13.706 8.53175 13.706 8.53175H13.706C13.706 8.53175 13.706 8.53175 13.706 8.53175H13.706C13.706 8.53175 13.706 8.53175 13.706 8.53175H13.706C13.706 8.53175 13.706 8.53175 13.706 8.53175H13.706C13.706 8.53175 13.706 8.53175 13.706 8.53175H13.706C13.706 8.53175 13.706 8.53175 13.706 8.53175H13.706C13.706 8.53175 13.706 8.53175 13.706 8.53175H13.7059C13.7059 8.53175 13.7059 8.53175 13.7059 8.53175H13.7059C13.7059 8.53175 13.7059 8.53175 13.7059 8.53175H13.7059C13.7059 8.53175 13.7059 8.53175 13.7059 8.53175H13.7059C13.7059 8.53175 13.7059 8.53175 13.7059 8.53175H13.7059C13.7059 8.53175 13.7059 8.53175 13.7059 8.53175H13.7059C13.7059 8.53175 13.7059 8.53175 13.7059 8.53175H13.7059C13.7059 8.53175 13.7059 8.53175 13.7059 8.53175H13.7059C13.7059 8.53175 13.7059 8.53175 13.7059 8.53175H13.7059C13.7059 8.53175 13.7059 8.53175 13.7059 8.53175C13.7059 8.53175 13.7059 8.53175 13.7059 8.53175H13.7059C13.7059 8.53175 13.7059 8.53175 13.7059 8.53175H13.7059C13.7059 8.53175 13.7059 8.53175 13.7059 8.53175H13.7059C13.7059 8.53175 13.7059 8.53175 13.7059 8.53175H13.7059C13.7059 8.53175 13.7059 8.53175 13.7059 8.53175H13.7059C13.7059 8.53175 13.7059 8.53175 13.7059 8.53175H13.7059C13.7059 8.53175 13.7059 8.53175 13.7059 8.53175H13.7059C13.7059 8.53175 13.7059 8.53175 13.7059 8.53175H13.7059C13.7059 8.53175 13.7059 8.53175 13.7059 8.53175H13.7059C13.7059 8.53175 13.7059 8.53175 13.7059 8.53175H13.7059C13.7059 8.53175 13.7059 8.53175 13.7059 8.53175H13.7059C13.7059 8.53175 13.7059 8.53175 13.7059 8.53175H13.7059C13.7059 8.53175 13.7059 8.53175 13.7059 8.53175H13.7059C13.7059 8.53175 13.7059 8.53175 13.7059 8.53175H13.7059C13.7059 8.53175 13.7059 8.53175 13.7059 8.53175H13.7059C13.7059 8.53175 13.7059 8.53175 13.7059 8.53175H13.7059C13.7059 8.53175 13.7059 8.53175 13.7059 8.53175H13.7059C13.7059 8.53175 13.7059 8.53175 13.7059 8.53175H13.7059C13.7059 8.53175 13.7059 8.53175 13.7059 8.53175H13.7059C13.7059 8.53175 13.7059 8.53175 13.7059 8.53175H13.7059C13.7059 8.53175 13.7059 8.53175 13.7059 8.53175H13.7059C13.7059 8.53175 13.7059 8.53175 13.7059 8.53175V8.93175ZM13.7056 8.93175H13.7059V8.53175H13.7056V8.93175ZM13.0513 8.56004C13.1839 8.78222 13.4272 8.93175 13.7056 8.93175V8.53175C13.5738 8.53175 13.4582 8.46132 13.3948 8.35507L13.0513 8.56004ZM12.1383 7.11861L13.0541 8.56457L13.392 8.35055L12.4762 6.90459L12.1383 7.11861ZM10.5911 10.4105L12.4808 7.111L12.1337 6.9122L10.244 10.2117L10.5911 10.4105ZM10.4033 10.6345C10.4824 10.5706 10.5463 10.4928 10.5932 10.4067L10.2419 10.2154C10.2197 10.2563 10.1894 10.293 10.1521 10.3231L10.4033 10.6345ZM10.2218 10.7432C10.2865 10.7158 10.3477 10.6794 10.4034 10.6344L10.152 10.3232C10.1257 10.3445 10.0967 10.3618 10.0659 10.3748L10.2218 10.7432ZM9.92337 10.8036C10.0236 10.8039 10.1252 10.7843 10.222 10.7431L10.0656 10.3749C10.0195 10.3945 9.97158 10.4037 9.92428 10.4036L9.92337 10.8036ZM9.54609 10.7028C9.66506 10.771 9.79527 10.8036 9.92375 10.8036L9.9239 10.4036C9.86326 10.4036 9.80179 10.3883 9.74489 10.3557L9.54609 10.7028ZM9.47855 10.6593C9.50038 10.6751 9.52298 10.6896 9.54623 10.7029L9.74475 10.3556C9.73372 10.3493 9.723 10.3424 9.71264 10.335L9.47855 10.6593ZM9.23756 10.3707C9.29107 10.4827 9.37251 10.5829 9.47863 10.6594L9.71256 10.3349C9.66237 10.2987 9.62391 10.2515 9.5985 10.1983L9.23756 10.3707ZM6.87586 5.70956L9.23963 10.3749L9.59644 10.1941L7.23267 5.52877L6.87586 5.70956ZM6.19075 8.00004L7.23631 5.70199L6.87222 5.53634L5.82666 7.83438L6.19075 8.00004ZM6.2688 8.17022C6.2688 8.04714 6.23945 7.93034 6.18719 7.82697L5.83022 8.00745C5.85484 8.05614 5.8688 8.11126 5.8688 8.17022H6.2688ZM5.50726 8.93175C5.92785 8.93175 6.2688 8.5908 6.2688 8.17022H5.8688C5.8688 8.36989 5.70693 8.53175 5.50726 8.53175V8.93175ZM4.08691 8.93175H5.50726V8.53175H4.08691V8.93175ZM11.6194 5.55042L9.78133 8.7598L10.1284 8.9586L11.9665 5.74922L11.6194 5.55042ZM10.1333 8.76881L7.75886 4.08245L7.40205 4.26323L9.77647 8.94959L10.1333 8.76881ZM7.75886 4.08245C7.56877 3.70727 7.11054 3.55723 6.73536 3.74732L6.91614 4.10413C7.09426 4.01389 7.3118 4.08512 7.40205 4.26323L7.75886 4.08245ZM6.73536 3.74732C6.48899 3.87214 6.33996 4.11261 6.32016 4.36839L6.71897 4.39926C6.72843 4.27693 6.79949 4.16324 6.91614 4.10413L6.73536 3.74732ZM6.40772 4.21802C6.3021 4.28927 6.21332 4.38867 6.15723 4.51196L6.52132 4.67761C6.54469 4.62624 6.58259 4.58256 6.6314 4.54963L6.40772 4.21802ZM6.15723 4.51196L4.78597 7.52586L5.15006 7.69151L6.52132 4.67761L6.15723 4.51196ZM4.96801 7.40868H3.04138V7.80868H4.96801V7.40868ZM3.20443 7.49286C2.18004 6.05076 2.31444 4.03796 3.60711 2.74531L3.32427 2.46246C1.89131 3.89539 1.74283 6.12598 2.87833 7.72451L3.20443 7.49286ZM3.60712 2.46247L3.2267 2.08204L2.94385 2.36488L3.32427 2.74531L3.60712 2.46247ZM2.94385 2.36488L3.32428 2.7453L3.60712 2.46246L3.2267 2.08204L2.94385 2.36488ZM3.60712 2.7453C5.04965 1.30277 7.38844 1.30277 8.83098 2.7453L9.11382 2.46246C7.51507 0.863715 4.92302 0.863715 3.32428 2.46246L3.60712 2.7453ZM8.83098 2.7453L9.46106 3.37538L9.7439 3.09254L9.11382 2.46246L8.83098 2.7453ZM9.46106 3.37538C9.75845 3.67278 10.2406 3.67278 10.538 3.37538L10.2552 3.09254C10.114 3.23373 9.88509 3.23373 9.7439 3.09254L9.46106 3.37538ZM10.538 3.37538L11.1681 2.7453L10.8853 2.46246L10.2552 3.09254L10.538 3.37538ZM11.1681 2.7453C12.6106 1.30277 14.9494 1.30277 16.392 2.7453L16.6748 2.46246C15.0761 0.863715 12.484 0.863715 10.8853 2.46246L11.1681 2.7453ZM16.6748 2.7453L17.0719 2.34824L16.789 2.0654L16.392 2.46246L16.6748 2.7453ZM16.789 2.0654L16.392 2.46247L16.6748 2.74531L17.0719 2.34824L16.789 2.0654ZM16.392 2.74531C17.6846 4.03796 17.819 6.05076 16.7947 7.49286L17.1208 7.72451C18.2563 6.12598 18.1078 3.89539 16.6748 2.46246L16.392 2.74531ZM16.9577 7.40868H14.0148V7.80868H16.9577V7.40868ZM14.1838 7.50167L12.9265 5.51655L12.5886 5.73057L13.8458 7.71569L14.1838 7.50167ZM12.9265 5.51655C12.8255 5.35704 12.6745 5.24761 12.5072 5.19616L12.3896 5.5785C12.4693 5.60298 12.5405 5.65465 12.5886 5.73057L12.9265 5.51655ZM12.5075 5.19625C12.4492 5.17823 12.3897 5.16756 12.3303 5.16389L12.3057 5.56314C12.3338 5.56487 12.3618 5.56991 12.3893 5.57841L12.5075 5.19625ZM12.3306 5.16391C12.2024 5.15583 12.0708 5.18007 11.9492 5.23955L12.1249 5.59888C12.1824 5.57077 12.2445 5.55928 12.3054 5.56312L12.3306 5.16391ZM11.9496 5.23934C11.856 5.28484 11.7708 5.34995 11.701 5.43282L12.0069 5.69057C12.0398 5.65149 12.08 5.62072 12.1245 5.59909L11.9496 5.23934ZM11.7011 5.43265C11.6695 5.47013 11.6418 5.51025 11.6183 5.55233L11.9676 5.7473C11.9787 5.72736 11.9918 5.70841 12.0067 5.69075L11.7011 5.43265Z" fill="#908A99"/>
</svg>
